<svg xmlns="http://www.w3.org/2000/svg" width="21.031" height="21" viewBox="0 0 21.031 21">
  <metadata><?xpacket begin="﻿" id="W5M0MpCehiHzreSzNTczkc9d"?>
<x:xmpmeta xmlns:x="adobe:ns:meta/" x:xmptk="Adobe XMP Core 5.6-c142 79.160924, 2017/07/13-01:06:39        ">
   <rdf:RDF xmlns:rdf="http://www.w3.org/1999/02/22-rdf-syntax-ns#">
      <rdf:Description rdf:about=""/>
   </rdf:RDF>
</x:xmpmeta>
                                                                                                    
                                                                                                    
                                                                                                    
                                                                                                    
                                                                                                    
                                                                                                    
                                                                                                    
                                                                                                    
                                                                                                    
                                                                                                    
                                                                                                    
                                                                                                    
                                                                                                    
                                                                                                    
                                                                                                    
                                                                                                    
                                                                                                    
                                                                                                    
                                                                                                    
                                                                                                    
                           
<?xpacket end="w"?></metadata>
<defs>
    <style>
      .cls-1 {
        fill: #fff;
        fill-rule: evenodd;
      }
    </style>
  </defs>
  <path id="dribbble" class="cls-1" d="M100.3,8.416A10.528,10.528,0,0,0,94.1.845,10.359,10.359,0,0,0,92.119.232a10.59,10.59,0,0,0-4.235,0,10.471,10.471,0,0,0-3.762,1.582,10.587,10.587,0,0,0-2.838,2.839A10.461,10.461,0,0,0,79.7,8.416a10.6,10.6,0,0,0,0,4.234,10.469,10.469,0,0,0,1.583,3.762,10.54,10.54,0,0,0,4.625,3.808,10.5,10.5,0,0,0,9.972-.97,10.548,10.548,0,0,0,2.839-2.838A10.534,10.534,0,0,0,100.3,8.416Zm-1.323,2.027a20.781,20.781,0,0,0-6.254-.294C92.661,9.995,92.6,9.84,92.531,9.685c-0.187-.438-0.388-0.874-0.6-1.3a11.549,11.549,0,0,0,5-3.554A8.937,8.937,0,0,1,98.979,10.443ZM95.933,3.794a9.776,9.776,0,0,1-4.69,3.251,45.537,45.537,0,0,0-3.356-5.239A8.964,8.964,0,0,1,95.933,3.794Zm-8.081-1.98h0l-0.027.007Zm-1.681.6a54,54,0,0,1,3.334,5.174,33.158,33.158,0,0,1-8.29,1.1A8.99,8.99,0,0,1,86.171,2.412Zm-5.148,8.12c0-.1,0-0.19.008-0.284a32.918,32.918,0,0,0,9.218-1.279c0.258,0.5.5,1.015,0.729,1.526-0.119.034-.236,0.07-0.354,0.107a14.2,14.2,0,0,0-7.3,5.927,0.011,0.011,0,0,1,0,0A8.951,8.951,0,0,1,81.023,10.531ZM90,19.511a8.944,8.944,0,0,1-5.72-2.057c0.118,0.1.2,0.157,0.2,0.157S86.205,13.857,91.53,12c0.019-.008.04-0.013,0.059-0.019A37.365,37.365,0,0,1,93.508,18.8,8.941,8.941,0,0,1,90,19.511ZM95.02,17.98a38.8,38.8,0,0,0-1.748-6.414,13.012,13.012,0,0,1,5.6.391A8.985,8.985,0,0,1,95.02,17.98Z" transform="translate(-79.5 -0.031)"/>
</svg>
