<svg xmlns="http://www.w3.org/2000/svg" width="21.031" height="18.063" viewBox="0 0 21.031 18.063">
  <metadata><?xpacket begin="﻿" id="W5M0MpCehiHzreSzNTczkc9d"?>
<x:xmpmeta xmlns:x="adobe:ns:meta/" x:xmptk="Adobe XMP Core 5.6-c142 79.160924, 2017/07/13-01:06:39        ">
   <rdf:RDF xmlns:rdf="http://www.w3.org/1999/02/22-rdf-syntax-ns#">
      <rdf:Description rdf:about=""/>
   </rdf:RDF>
</x:xmpmeta>
                                                                                                    
                                                                                                    
                                                                                                    
                                                                                                    
                                                                                                    
                                                                                                    
                                                                                                    
                                                                                                    
                                                                                                    
                                                                                                    
                                                                                                    
                                                                                                    
                                                                                                    
                                                                                                    
                                                                                                    
                                                                                                    
                                                                                                    
                                                                                                    
                                                                                                    
                                                                                                    
                           
<?xpacket end="w"?></metadata>
<defs>
    <style>
      .cls-1 {
        fill: #fff;
        fill-rule: evenodd;
      }
    </style>
  </defs>
  <path id="google_plus" data-name="google plus" class="cls-1" d="M18.378,6.2V9.4H17.064V6.2H13.778V4.886h3.286V1.68h1.314V4.886h3.285V6.2H18.378ZM9.29,2.951a3.365,3.365,0,0,1,1.85,3.063A3.561,3.561,0,0,1,9.512,8.777c-0.894.686-1.064,0.974-1.064,1.558a3.573,3.573,0,0,0,1.46,1.694,3.744,3.744,0,0,1,1.9,3.539c0,1.967-1.9,4.165-5.409,4.165-3.08,0-5.76-1.473-5.76-3.44,0-2,2.453-3.925,5.532-3.925,0.336,0,.643-0.015.961-0.015a2.115,2.115,0,0,1-.755-1.513A2.252,2.252,0,0,1,6.656,9.81c-0.167.012-.338-0.016-0.514-0.016A4.023,4.023,0,0,1,1.917,5.775c0-2.143,2.34-4.116,4.827-4.116H12.29L11.049,2.951H9.29ZM6.755,12.877c-2.128-.022-4.036,1.275-4.036,2.833,0,1.59,1.538,2.753,3.666,2.753,2.992,0,4.036-1.081,4.036-2.671a2.4,2.4,0,0,0-.068-0.562c-0.234-.9-1.063-1.345-2.218-2.134A4.741,4.741,0,0,0,6.755,12.877ZM9.146,6.039C8.9,4.2,7.48,2.717,6.051,2.676S3.664,4.044,3.911,5.887,5.515,9.259,6.944,9.3,9.393,7.882,9.146,6.039Z" transform="translate(-0.625 -1.656)"/>
</svg>
