<svg xmlns="http://www.w3.org/2000/svg" width="21.031" height="21" viewBox="0 0 21.031 21">
  <metadata><?xpacket begin="﻿" id="W5M0MpCehiHzreSzNTczkc9d"?>
<x:xmpmeta xmlns:x="adobe:ns:meta/" x:xmptk="Adobe XMP Core 5.6-c142 79.160924, 2017/07/13-01:06:39        ">
   <rdf:RDF xmlns:rdf="http://www.w3.org/1999/02/22-rdf-syntax-ns#">
      <rdf:Description rdf:about=""/>
   </rdf:RDF>
</x:xmpmeta>
                                                                                                    
                                                                                                    
                                                                                                    
                                                                                                    
                                                                                                    
                                                                                                    
                                                                                                    
                                                                                                    
                                                                                                    
                                                                                                    
                                                                                                    
                                                                                                    
                                                                                                    
                                                                                                    
                                                                                                    
                                                                                                    
                                                                                                    
                                                                                                    
                                                                                                    
                                                                                                    
                           
<?xpacket end="w"?></metadata>
<defs>
    <style>
      .cls-1 {
        fill: #fff;
        fill-rule: evenodd;
      }
    </style>
  </defs>
  <path id="instagram" class="cls-1" d="M19.182,21.046H3.412A2.628,2.628,0,0,1,.783,18.418V2.648A2.628,2.628,0,0,1,3.412.018h15.77a2.629,2.629,0,0,1,2.629,2.63v15.77A2.628,2.628,0,0,1,19.182,21.046ZM11.3,6.458A4.073,4.073,0,0,0,7.6,8.824h0c-0.007.015-.011,0.03-0.018,0.045-0.039.086-.073,0.176-0.106,0.265-0.016.042-.032,0.084-0.047,0.127C7.4,9.353,7.373,9.446,7.35,9.54c-0.011.044-.024,0.087-0.034,0.132-0.021.1-.036,0.2-0.05,0.3-0.006.041-.014,0.082-0.019,0.123a4.074,4.074,0,1,0,8.1,0c0-.041-0.013-0.082-0.019-0.123-0.014-.1-0.029-0.2-0.051-0.3-0.009-.045-0.023-0.088-0.034-0.132C15.22,9.446,15.2,9.353,15.166,9.26c-0.014-.043-0.031-0.085-0.047-0.127-0.033-.089-0.067-0.179-0.106-0.265C15.007,8.854,15,8.839,15,8.824h0A4.073,4.073,0,0,0,11.3,6.458Zm8.148-3.022a1.051,1.051,0,0,0-1.051-1.051h-2.1a1.051,1.051,0,0,0-1.052,1.051v2.1a1.051,1.051,0,0,0,1.052,1.051h2.1a1.051,1.051,0,0,0,1.051-1.051v-2.1Zm0,5.388H17.507a6.44,6.44,0,1,1-12.42,0H3.149v8.806A1.051,1.051,0,0,0,4.2,18.681H18.394a1.051,1.051,0,0,0,1.051-1.051V8.824Z" transform="translate(-0.781 -0.031)"/>
</svg>
