<svg xmlns="http://www.w3.org/2000/svg" width="16.063" height="21.063" viewBox="0 0 16.063 21.063">
  <metadata><?xpacket begin="﻿" id="W5M0MpCehiHzreSzNTczkc9d"?>
<x:xmpmeta xmlns:x="adobe:ns:meta/" x:xmptk="Adobe XMP Core 5.6-c142 79.160924, 2017/07/13-01:06:39        ">
   <rdf:RDF xmlns:rdf="http://www.w3.org/1999/02/22-rdf-syntax-ns#">
      <rdf:Description rdf:about=""/>
   </rdf:RDF>
</x:xmpmeta>
                                                                                                    
                                                                                                    
                                                                                                    
                                                                                                    
                                                                                                    
                                                                                                    
                                                                                                    
                                                                                                    
                                                                                                    
                                                                                                    
                                                                                                    
                                                                                                    
                                                                                                    
                                                                                                    
                                                                                                    
                                                                                                    
                                                                                                    
                                                                                                    
                                                                                                    
                                                                                                    
                           
<?xpacket end="w"?></metadata>
<defs>
    <style>
      .cls-1 {
        fill: #fff;
        fill-rule: evenodd;
      }
    </style>
  </defs>
  <path id="pinterest" class="cls-1" d="M41.2,14.7c-0.172.685-.345,1.4-0.524,2.1a16.041,16.041,0,0,1-.589,2.028,10.383,10.383,0,0,1-1.679,2.892c-0.472.548-.372,0.33-0.514,0.3C37.79,22,37.781,21.893,37.76,21.739A15.83,15.83,0,0,1,37.766,19a14.833,14.833,0,0,1,.483-2.851c0.4-1.7.777-3.357,1.179-5.063a1.129,1.129,0,0,0,.074-0.365,5.277,5.277,0,0,1-.352-1.4,4.443,4.443,0,0,1,.114-1.6A2.634,2.634,0,0,1,40.82,5.8a1.786,1.786,0,0,1,1.424.108,1.548,1.548,0,0,1,.712,1.022,3.689,3.689,0,0,1-.066,1.554c-0.219,1-.507,1.752-0.77,2.718a2.992,2.992,0,0,0-.155,1.489,1.73,1.73,0,0,0,.7,1.046A2.025,2.025,0,0,0,44,14.116a2.92,2.92,0,0,0,2.178-1.288A7.619,7.619,0,0,0,47.55,8.979a9.49,9.49,0,0,0,.057-1.655,4.5,4.5,0,0,0-.925-2.56,4.336,4.336,0,0,0-2.063-1.4,6.839,6.839,0,0,0-3.079-.191,5.452,5.452,0,0,0-4.036,2.9,5.82,5.82,0,0,0-.688,2.8,3.636,3.636,0,0,0,.557,2.053c0.109,0.165.27,0.3,0.377,0.491a1.418,1.418,0,0,1-.1.955c-0.09.35-.1,0.832-0.508,0.841a1.241,1.241,0,0,1-.524-0.2,4.2,4.2,0,0,1-1.99-3.067,7.345,7.345,0,0,1,0-2.661,7.567,7.567,0,0,1,3.611-5.045A8.58,8.58,0,0,1,41.45,1.132c0.418-.061.85-0.086,1.318-0.108a7.911,7.911,0,0,1,3.553.665A7.273,7.273,0,0,1,48.77,3.45,6.676,6.676,0,0,1,50.276,6.17,6.547,6.547,0,0,1,50.6,8.048a11.25,11.25,0,0,1-.253,1.945A7.664,7.664,0,0,1,47.2,15.3a5.438,5.438,0,0,1-1.441.664,5.254,5.254,0,0,1-1.842.232,3.779,3.779,0,0,1-1.629-.473A2.7,2.7,0,0,1,41.2,14.7Z" transform="translate(-34.531 -1.031)"/>
</svg>
