<svg xmlns="http://www.w3.org/2000/svg" width="13.125" height="21.063" viewBox="0 0 13.125 21.063">
  <metadata><?xpacket begin="﻿" id="W5M0MpCehiHzreSzNTczkc9d"?>
<x:xmpmeta xmlns:x="adobe:ns:meta/" x:xmptk="Adobe XMP Core 5.6-c142 79.160924, 2017/07/13-01:06:39        ">
   <rdf:RDF xmlns:rdf="http://www.w3.org/1999/02/22-rdf-syntax-ns#">
      <rdf:Description rdf:about=""/>
   </rdf:RDF>
</x:xmpmeta>
                                                                                                    
                                                                                                    
                                                                                                    
                                                                                                    
                                                                                                    
                                                                                                    
                                                                                                    
                                                                                                    
                                                                                                    
                                                                                                    
                                                                                                    
                                                                                                    
                                                                                                    
                                                                                                    
                                                                                                    
                                                                                                    
                                                                                                    
                                                                                                    
                                                                                                    
                                                                                                    
                           
<?xpacket end="w"?></metadata>
<defs>
    <style>
      .cls-1 {
        fill: #fff;
        fill-rule: evenodd;
      }
    </style>
  </defs>
  <path id="tumblr" class="cls-1" d="M136.011,19.9a12.562,12.562,0,0,1-2.429.89,10.241,10.241,0,0,1-2.352.256,6.39,6.39,0,0,1-2.257-.362,5.493,5.493,0,0,1-1.881-1.039,3.781,3.781,0,0,1-1.081-1.435,6.263,6.263,0,0,1-.3-2.2V8.632h-2.843V5.653a7.377,7.377,0,0,0,2.36-1.155A5.725,5.725,0,0,0,126.64,2.69,8.147,8.147,0,0,0,127.373.01h2.977V4.878h4.839V8.632H130.35v5.395a9.248,9.248,0,0,0,.113,2.269,1.944,1.944,0,0,0,.8.909,3.026,3.026,0,0,0,1.588.419,5.7,5.7,0,0,0,3.162-1.039V19.9Z" transform="translate(-122.875)"/>
</svg>
