<svg xmlns="http://www.w3.org/2000/svg" width="21.031" height="17.063" viewBox="0 0 21.031 17.063">
  <metadata><?xpacket begin="﻿" id="W5M0MpCehiHzreSzNTczkc9d"?>
<x:xmpmeta xmlns:x="adobe:ns:meta/" x:xmptk="Adobe XMP Core 5.6-c142 79.160924, 2017/07/13-01:06:39        ">
   <rdf:RDF xmlns:rdf="http://www.w3.org/1999/02/22-rdf-syntax-ns#">
      <rdf:Description rdf:about=""/>
   </rdf:RDF>
</x:xmpmeta>
                                                                                                    
                                                                                                    
                                                                                                    
                                                                                                    
                                                                                                    
                                                                                                    
                                                                                                    
                                                                                                    
                                                                                                    
                                                                                                    
                                                                                                    
                                                                                                    
                                                                                                    
                                                                                                    
                                                                                                    
                                                                                                    
                                                                                                    
                                                                                                    
                                                                                                    
                                                                                                    
                           
<?xpacket end="w"?></metadata>
<defs>
    <style>
      .cls-1 {
        fill: #fa7c30;
        fill-rule: evenodd;
      }
    </style>
  </defs>
  <path id="twitter" class="cls-1" d="M14.659-.009a4.436,4.436,0,0,1,3.41,1.354A6.99,6.99,0,0,0,20.279.6l0.537-.294a4.316,4.316,0,0,1-1.4,2.025,2.047,2.047,0,0,1-.474.336v0.01a8.089,8.089,0,0,0,2.442-.66v0.01a6.948,6.948,0,0,1-1.463,1.679l-0.673.534a12.355,12.355,0,0,1-.2,2.771c-1.077,4.843-3.932,8.13-8.451,9.537a12.893,12.893,0,0,1-6.1.252,15.718,15.718,0,0,1-2.536-.829,10.075,10.075,0,0,1-1.221-.63l-0.379-.231a7.015,7.015,0,0,0,1.379.052c0.424-.068.84-0.049,1.231-0.136a8.815,8.815,0,0,0,2.589-.934,4.8,4.8,0,0,0,1.168-.765A3.673,3.673,0,0,1,5.44,13.1,4.331,4.331,0,0,1,2.7,10.337a4.284,4.284,0,0,0,1.926-.084,3.156,3.156,0,0,1-1.41-.567A4.152,4.152,0,0,1,1.188,5.993L1.63,6.2a4.712,4.712,0,0,0,.905.252,1.288,1.288,0,0,0,.589.051H3.1C2.886,6.254,2.533,6.085,2.314,5.815A4.409,4.409,0,0,1,1.346,1.9,5.017,5.017,0,0,1,1.809.777L1.83,0.789a2.634,2.634,0,0,0,.389.45A7.839,7.839,0,0,0,3.5,2.467a12.7,12.7,0,0,0,5.273,2.55,8.278,8.278,0,0,0,1.936.252,4.009,4.009,0,0,1,.021-2.025,4.251,4.251,0,0,1,2.442-2.9A5.167,5.167,0,0,1,14.133.054Z" transform="translate(-0.344)"/>
</svg>
